<?xml version="1.0" encoding="utf-8"?>
<!-- Generator: Adobe Illustrator 24.0.0, SVG Export Plug-In . SVG Version: 6.00 Build 0)  -->
<svg version="1.1" id="Layer_1" xmlns="http://www.w3.org/2000/svg" xmlns:xlink="http://www.w3.org/1999/xlink" x="0px" y="0px"
	 viewBox="0 0 48 48" style="enable-background:new 0 0 48 48;" xml:space="preserve">
<style type="text/css">
	.st0{fill:#FFFFFF;}
</style>
<g>
	<path class="st0" d="M24,6.9L6,21.6V44c0,1.1,0.9,2,2,2h11V35c0-0.6,0.4-1,1-1h8c0.6,0,1,0.4,1,1v11h11c1.1,0,2-0.9,2-2V21.6
		L24,6.9z"/>
	<path class="st0" d="M46,22c-0.2,0-0.5-0.1-0.6-0.2L24,4.3L2.6,21.8c-0.4,0.3-1.1,0.3-1.4-0.2c-0.3-0.4-0.3-1,0.1-1.4l22-18
		c0.4-0.3,0.9-0.3,1.3,0l22,18c0.4,0.3,0.5,1,0.1,1.4C46.6,21.9,46.3,22,46,22z"/>
</g>
</svg>
