<svg width="32" height="32" viewBox="0 0 32 32" fill="none" xmlns="http://www.w3.org/2000/svg">
<g clip-path="url(#clip0)">
<path d="M20.4139 11.5936C20 11.5936 19.6645 11.9291 19.6645 12.343V26.507C19.6645 26.9206 20 27.2564 20.4139 27.2564C20.8279 27.2564 21.1633 26.9206 21.1633 26.507V12.343C21.1633 11.9291 20.8279 11.5936 20.4139 11.5936Z" fill="#EF0000"/>
<path d="M11.5709 11.5936C11.1569 11.5936 10.8214 11.9291 10.8214 12.343V26.507C10.8214 26.9206 11.1569 27.2564 11.5709 27.2564C11.9848 27.2564 12.3203 26.9206 12.3203 26.507V12.343C12.3203 11.9291 11.9848 11.5936 11.5709 11.5936Z" fill="#EF0000"/>
<path d="M5.12592 9.52665V27.9906C5.12592 29.0819 5.52609 30.1068 6.22515 30.8422C6.92099 31.5796 7.88938 31.9982 8.90284 31.9999H23.0819C24.0957 31.9982 25.0641 31.5796 25.7596 30.8422C26.4587 30.1068 26.8589 29.0819 26.8589 27.9906V9.52665C28.2485 9.1578 29.149 7.81529 28.9631 6.38936C28.7769 4.96372 27.5623 3.89727 26.1244 3.89698H22.2874V2.96022C22.2918 2.17245 21.9804 1.41602 21.4227 0.85952C20.865 0.303315 20.1074 -0.00640283 19.3197 3.74315e-05H12.6651C11.8774 -0.00640283 11.1197 0.303315 10.5621 0.85952C10.0044 1.41602 9.69294 2.17245 9.69733 2.96022V3.89698H5.8604C4.42247 3.89727 3.20789 4.96372 3.02171 6.38936C2.83582 7.81529 3.73629 9.1578 5.12592 9.52665V9.52665ZM23.0819 30.5011H8.90284C7.62152 30.5011 6.62474 29.4004 6.62474 27.9906V9.59251H25.36V27.9906C25.36 29.4004 24.3633 30.5011 23.0819 30.5011ZM11.1962 2.96022C11.1912 2.56999 11.3446 2.19441 11.6215 1.91894C11.8981 1.64348 12.2746 1.49213 12.6651 1.49886H19.3197C19.7102 1.49213 20.0866 1.64348 20.3633 1.91894C20.6402 2.19412 20.7936 2.56999 20.7886 2.96022V3.89698H11.1962V2.96022ZM5.8604 5.39581H26.1244C26.8694 5.39581 27.4733 5.99973 27.4733 6.74475C27.4733 7.48977 26.8694 8.09369 26.1244 8.09369H5.8604C5.11538 8.09369 4.51146 7.48977 4.51146 6.74475C4.51146 5.99973 5.11538 5.39581 5.8604 5.39581V5.39581Z" fill="#EF0000"/>
<path d="M15.9924 11.5936C15.5785 11.5936 15.243 11.9291 15.243 12.343V26.507C15.243 26.9206 15.5785 27.2564 15.9924 27.2564C16.4063 27.2564 16.7418 26.9206 16.7418 26.507V12.343C16.7418 11.9291 16.4063 11.5936 15.9924 11.5936Z" fill="#EF0000"/>
</g>
<defs>
<clipPath id="clip0">
<rect width="32" height="32" fill="white"/>
</clipPath>
</defs>
</svg>
