<svg version="1" xmlns="http://www.w3.org/2000/svg" width="933.333" height="933.333" viewBox="0 0 700.000000 700.000000"><path d="M69.1 2.6C37.7 11.9 11.7 38 2.6 69.4L0 78.2v271.7C0 620.4 0 621.6 2 629c8.8 32.1 35.5 59.2 67.4 68.4l8.8 2.6h543.6l8.8-2.6c18.5-5.3 36.8-17.6 48.9-32.7 7.5-9.4 15.5-24.8 18.5-35.7 2-7.4 2-9 2-279.1V78.2l-2.6-8.8c-9.1-31.5-35.3-57.7-66.8-66.8L621.8 0 349.6.1H77.5l-8.4 2.5zm320.4 81.8c39.9 5.9 77.1 21.3 110.1 45.7 20.2 14.9 46 38.6 47.3 43.6 1 3.6.1 8.1-2.3 11.8-1.4 2.1-1.3 2.5 2.3 6.3 8.2 9 23.4 37.4 30.5 57 2.7 7.5 7.9 27.5 9 34.7 1.5 9.3 1.3 9 10.9 15.3 14.4 9.4 20.4 16.7 24.3 29.7 1.5 5.1 1.8 10 1.9 33 0 25-.2 27.7-2.4 37-1.3 5.5-3.5 12.2-5 15-4.1 7.8-12.8 15.8-21.8 20.1-7.1 3.5-8.6 3.9-17.8 4.2-11.4.4-15.3-1-19.2-6.8l-2.3-3.3v-50.1c0-36.5-.4-53.8-1.5-63.6-6.4-60.8-32.2-107.7-77.9-141.7-11.7-8.7-30.1-19.8-42.1-25.4-66.8-30.8-145.4-22.2-206 22.6C183 202.4 154 253.1 147.9 309c-.7 6.5-.9 17.7-.6 29.5.7 20.3-1.8 89.1-3.3 93.1-1.8 4.5-5.6 5.9-16 5.8-22.6-.1-39.2-12.1-46.2-33.3-2-6-2.2-9.1-2.6-36.6-.4-32.9.2-38.3 5.5-49.1 3.3-6.8 12.1-15.3 20.1-19.3 4.8-2.4 6.3-3.7 6.7-5.9 6.9-33.6 20.4-66.3 38.8-93.6l5.9-8.9-.6-7.8c-1-11 .6-14.1 13.6-26.9 25.9-25.5 55.6-44.8 87.2-56.5 19.4-7.2 51.5-14.1 76.2-16.5 12.2-1.2 44.7-.4 56.9 1.4zM228.2 342.7c7 2.7 35.6 19.9 44.3 26.5 35.6 27.2 45.6 37.2 57.8 58 5.6 9.4 5.7 9.8 5.7 17.1 0 6.2-.5 8.3-3.1 13.5-3.4 6.9-8.8 12-16.4 15.7-8.1 3.9-29.2 5.4-52.6 3.7-30.5-2.2-43.4-6.7-56.4-19.6-7.8-7.7-12.9-16.8-17.9-32.1-6.9-20.6-7.5-46.4-1.6-63.2 6.4-18.1 23.2-26.4 40.2-19.6zM497.8 391c6.7 2.9 13.4 10.2 15.2 16.5 1.9 6.9 1.7 22.8-.4 30-5.9 19.9-19.8 35.3-36.5 40.6-13 4.1-26.3 3.5-68.1-3.2-15.1-2.4-18-3.2-24.8-7.5-12.6-8.1-15.1-22.8-5.6-32.9 8.6-9.1 22.8-19 33.6-23.4 2.9-1.2 18.6-6.8 34.8-12.6l29.5-10.5 8.5.3c6.2.3 10 1 13.8 2.7zm59.3 76c2.9 1.6 7.7 12 10 21.7 2 8.4 2 9 .5 25.6-1.9 20.3-2.7 23.7-7.6 34.4-6.7 14.3-15.4 25.5-28 35.6-10.9 8.7-21.4 14-40.2 20.3-8.8 2.9-16.8 6-17.7 6.8-.9.8-3.8 1.6-6.6 2-2.7.3-10.4 1.4-17 2.5-33.1 5.3-85.9 5.4-117.4 0-16.3-2.7-23.1-6.3-18.8-9.6 4.4-3.6 25.5-7.3 41.3-7.3 8.7 0 11.4-.3 12.4-1.5.8-1 3.1-1.5 7-1.5s6.2-.5 7-1.5c.8-.9 3-1.5 5.8-1.5 2.4 0 7.6-1.1 11.4-2.5 3.8-1.4 8.4-2.5 10.1-2.5 8.1 0 29-7.3 46.5-16.3 29.8-15.1 44.9-26.1 58.7-42.8 15.2-18.3 25.7-35.7 29.5-49 1.6-5.6 3.7-11 4.6-12 1.9-2.1 5.5-2.5 8.5-.9z"/></svg>