<svg version="1" xmlns="http://www.w3.org/2000/svg" width="6639" height="1999"><style>.st0{fill:#e0e0e0}</style><path class="st0" d="M5685 492c1-15-1-32 2-49 5-29 20-51 46-64 7-3 11-6 12-14 11-63 37-120 74-171 4-6 7-10 2-18-7-9-2-18 5-26 52-59 115-102 190-125 178-56 336-18 470 112 12 12 29 25 13 46-2 3 2 6 4 9 39 53 64 111 76 175 1 7 5 9 10 12 33 16 48 43 49 79 0 32 3 64-2 96-8 46-55 77-100 68-14-3-17-13-17-26V438c-3-141-67-247-191-315a358 358 0 0 0-517 244c-8 40-6 80-6 121l-1 113c0 13-8 21-22 22-58 2-97-34-97-92v-39"/><path class="st0" d="M6269 688c24 3 48 7 72 8 33 2 58-8 76-28 23-24 33-53 31-85-1-32-30-52-68-45-34 6-65 19-96 32-27 10-52 24-72 42-28 26-12 61 32 71l25 5M6135 621c-2-8-7-15-12-22a427 427 0 0 0-109-105c-32-22-57-34-57-34-38-19-73-1-82 43-10 49-2 95 25 138 18 29 46 43 80 46l63 5c17 0 34 2 51-4 22-8 39-21 43-45 1-8 0-15-2-22M6544 733c-1-19-9-50-22-60-5-4-13-2-15 5l-14 35c-15 35-37 64-62 87-34 31-73 53-112 69l-29 10a364 364 0 0 1-27 8l-1 1-17 4-1 1-8 1-16 4h-1l-6 1h-1l-13 3h-1l-6 1h-1l-5 1h-6-1l-4 1-22 2c-162 17 41 53 194 26l2-1 10-2 10-2 7-1 4-1c20-5 39-12 55-20 95-46 104-123 104-123 3-14 5-31 5-50"/><g><path class="st0" d="M391 1032h-95c-13 0-23 10-23 23v416c0 83 28 118 96 118 12 0 22-1 33-3 14-3 27 8 27 22v91c0 11-8 20-19 22-33 6-56 8-87 8-76 0-133-20-166-61-29-36-38-76-38-180v-433c0-13-10-23-22-23H23c-13 0-23-10-23-23v-92c0-12 10-22 23-22h74c12 0 22-10 22-23V692c0-12 10-22 23-22h109c12 0 22 10 22 22v180c0 13 10 23 23 23h95c13 0 23 10 23 22v92c0 13-10 23-23 23M876 1151c0-97-30-137-101-137s-101 40-101 137v45h202v-45zm-179 181c-13 0-23 10-23 23v50c0 144 25 189 104 189 48 0 81-25 93-73 4-14 6-27 6-65 1-13 11-23 23-23h109c12 0 22 10 22 23-2 99-8 134-34 174-42 68-118 104-219 104-94 0-165-30-207-86-36-51-51-112-51-223v-245c0-131 15-186 66-236 45-43 109-66 187-66 85 0 151 27 194 76 48 53 63 113 63 242v113c0 13-10 23-23 23H697zM1512 1332c0-17-19-28-35-19-110 64-156 118-156 188 0 54 33 92 78 92 41 1 80-22 109-68 2-4 4-8 4-13v-180zm8 368l-5-28c-3-18-25-27-38-14-55 53-95 71-151 71-104 0-167-83-167-218 0-106 40-171 142-232 36-22 77-42 197-93 8-4 14-12 14-21v-29c0-84-23-117-81-117-54 0-80 29-89 98-2 11-11 19-22 19h-117c-14 0-25-11-23-25 21-149 115-228 272-228 76 0 131 20 169 63 35 43 45 81 45 182v366c0 105 2 148 12 196 3 14-8 28-22 28h-114c-10 0-20-7-22-18M1979 944c0 19 24 30 38 16 56-54 108-77 167-77s99 28 119 82c6 15 26 18 37 7 62-62 118-89 182-89 93 0 136 61 136 192v620c0 13-11 23-23 23h-109c-12 0-22-10-22-23v-580c0-71-15-96-58-96-42 0-84 27-123 76-3 4-5 10-5 15v585c0 13-10 23-23 23h-108c-13 0-23-10-23-23v-580c0-71-15-96-58-96-41 0-84 27-122 76-4 4-5 10-5 15v585c0 13-10 23-23 23h-109c-12 0-22-10-22-23V917c0-12 10-22 22-22h109c13 0 23 10 23 22v27zM3162 1129c-11 5-24 0-29-11-31-71-65-99-119-99-48 0-82 30-82 73 0 45 24 68 140 131 92 51 134 77 167 112 36 38 58 95 58 156 0 146-101 243-254 243-134 0-220-66-273-210-5-12 2-25 14-29l100-35c12-4 25 2 29 13 32 86 70 121 130 121 52 0 88-35 88-83 0-47-26-76-116-124a668 668 0 0 1-180-123c-38-40-60-96-60-156 0-134 101-230 240-230 124 0 207 57 259 178 4 11-1 25-13 30l-99 43zM3553 1540c0 8 4 15 10 19 37 25 66 35 98 35 31 0 60-17 71-44 14-28 15-49 15-135v-217c0-86-1-108-15-136a76 76 0 0 0-71-43c-32 0-62 11-97 34-7 5-11 12-11 19v468zm0-623v9c0 19 23 29 38 17 51-41 96-60 145-60 59 0 106 30 132 85 25 56 33 114 33 240v197c0 127-8 184-33 240-26 54-73 84-132 84-49 0-94-18-145-60-15-12-38-2-38 18v290c0 12-10 22-22 22h-109c-12 0-23-10-23-22V917c0-12 11-22 23-22h109c12 0 22 10 22 22M4391 1151c0-97-30-137-101-137s-101 40-101 137v45h202v-45zm-179 181c-13 0-23 10-23 23v50c0 144 25 189 105 189 48 0 81-25 92-73 5-14 6-27 7-65 0-13 10-23 22-23h109c12 0 23 10 22 23-2 99-8 134-34 174-41 68-117 104-218 104-95 0-166-30-207-86-37-51-52-112-52-223v-245c0-131 15-186 66-236 45-43 110-66 188-66 84 0 150 27 193 76 48 53 63 113 63 242v113c0 13-10 23-22 23h-311zM5027 1332c0-17-19-28-34-19-111 64-156 118-156 188 0 54 33 92 77 92 42 1 80-22 109-68 3-4 4-8 4-13v-180zm8 368l-5-28c-2-18-25-27-38-14-55 53-95 71-150 71-105 0-168-83-168-218 0-106 40-171 143-232 35-22 76-42 196-93 8-4 14-12 14-21v-29c0-84-23-117-81-117-53 0-80 29-89 98-2 11-11 19-22 19h-117c-14 0-25-11-23-25 21-149 115-228 272-228 77 0 131 20 169 63 35 43 45 81 45 182v366c0 105 2 148 12 196 3 14-8 28-22 28h-114c-10 0-19-7-22-18M5537 1149l136-243c4-7 12-11 20-11h121c18 0 29 19 19 34l-140 225c-3 6-4 13-2 19l169 515c5 15-6 30-21 30h-124c-10 0-19-7-22-16l-97-321c-5-18-30-22-41-5l-57 91c-3 4-4 8-4 12v216c0 13-10 23-23 23h-108c-13 0-23-10-23-23V636c0-13 10-23 23-23h108c13 0 23 10 23 23v502c0 23 31 31 43 11"/></g></svg>