<?xml version="1.0" encoding="utf-8"?>
<!-- Generator: Adobe Illustrator 23.0.6, SVG Export Plug-In . SVG Version: 6.00 Build 0)  -->
<svg version="1.1" id="Layer_1" xmlns="http://www.w3.org/2000/svg" xmlns:xlink="http://www.w3.org/1999/xlink" x="0px" y="0px"
	 viewBox="0 0 6639 1999" style="enable-background:new 0 0 6639 1999;" xml:space="preserve">
<style type="text/css">
	.st0{fill:#2580C3;}
	.st1{fill:#1C2537;}
</style>
<path class="st0" d="M5782,543.6c0.9-13.5-0.9-28.7,1.8-44c4.5-26.1,18-45.8,41.3-57.5c6.3-2.7,9.9-5.4,10.8-12.6
	c9.9-56.6,33.2-107.8,66.5-153.6c3.6-5.4,6.3-9,1.8-16.2c-6.3-8.1-1.8-16.2,4.5-23.4c46.7-53,103.3-91.6,170.7-112.3
	c159.9-50.3,301.9-16.2,422.3,100.6c10.8,10.8,26.1,22.5,11.7,41.3c-1.8,2.7,1.8,5.4,3.6,8.1c35,47.6,57.5,99.7,68.3,157.2
	c0.9,6.3,4.5,8.1,9,10.8c29.6,14.4,43.1,38.6,44,71c0,28.7,2.7,57.5-1.8,86.2c-7.2,41.3-49.4,69.2-89.8,61.1
	c-12.6-2.7-15.3-11.7-15.3-23.4v-142c-2.7-126.7-60.2-221.9-171.6-283c-157.3-82.6-351.7-22.1-434.3,135.1
	c-13.9,26.5-24.1,54.8-30.2,84.1c-7.2,35.9-5.4,71.9-5.4,108.7l-0.9,101.5c0,11.7-7.2,18.9-19.8,19.8c-52.1,1.8-87.1-30.5-87.1-82.7
	v-34.8"/>
<path class="st0" d="M6306.7,719.7c21.6,2.7,43.1,6.3,64.7,7.2c29.6,1.8,52.1-7.2,68.3-25.2c20.7-21.6,29.6-47.6,27.9-76.4
	c-0.9-28.7-27-46.7-61.1-40.4c-30.5,5.4-58.4,17.1-86.2,28.7c-24.3,9-46.7,21.6-64.7,37.7c-25.2,23.4-10.8,54.8,28.7,63.8
	L6306.7,719.7 M6186.3,659.5c-1.8-7.2-6.3-13.5-10.8-19.8c-26.8-37-59.9-69-97.9-94.3c-28.7-19.8-51.2-30.5-51.2-30.5
	c-34.1-17.1-65.6-0.9-73.7,38.6c-9,44-1.8,85.4,22.5,124c16.2,26.1,41.3,38.6,71.9,41.3l56.6,4.5c15.3,0,30.5,1.8,45.8-3.6
	c19.8-7.2,35-18.9,38.6-40.4C6189,672.1,6188.1,665.8,6186.3,659.5 M6553.7,760.1c-0.9-17.1-8.1-44.9-19.8-53.9
	c-4.5-3.6-11.7-1.8-13.5,4.5l-12.6,31.4c-13.5,31.4-33.2,57.5-55.7,78.2c-30.5,27.9-65.6,47.6-100.6,62l-26.1,9
	c-8,2.7-16.1,5.1-24.3,7.2l-0.9,0.9l-15.3,3.6l-0.9,0.9l-7.2,0.9l-14.4,3.6h-0.9l-5.4,0.9h-0.9l-11.7,2.7h-0.9l-5.4,0.9h-0.9
	l-4.5,0.9h-5.4h-0.9l-3.6,0.9l-19.8,1.8c-145.5,15.3,36.8,47.6,174.3,23.4l1.8-0.9l9-1.8l9-1.8l6.3-0.9l3.6-0.9
	c18-4.5,35-10.8,49.4-18c85.4-41.3,93.4-110.5,93.4-110.5C6551.9,792.4,6553.7,777.2,6553.7,760.1"/>
<g>
	<path class="st1" d="M1025.8,1028.7h-85.4c-11.7,0-20.7,9-20.7,20.7v373.7c0,74.6,25.2,106,86.2,106c10.8,0,19.8-0.9,29.6-2.7
		c12.6-2.7,24.3,7.2,24.3,19.8v81.8c0,9.9-7.2,18-17.1,19.8c-29.6,5.4-50.3,7.2-78.2,7.2c-68.3,0-119.5-18-149.1-54.8
		c-26.1-32.3-34.1-68.3-34.1-161.7v-389c0-11.7-9-20.7-19.8-20.7H695c-11.7,0-20.7-9-20.7-20.7v-82.7c0-10.8,9-19.8,20.7-19.8h66.5
		c10.8,0,19.8-9,19.8-20.7V723.3c0-10.8,9-19.8,20.7-19.8h98c10.8,0,19.8,9,19.8,19.8V885c0,11.7,9,20.7,20.7,20.7h85.4
		c11.7,0,20.7,9,20.7,19.8v82.7C1046.4,1019.7,1037.4,1028.7,1025.8,1028.7 M1461.5,1135.6c0-87.1-27-123.1-90.7-123.1
		c-63.8,0-90.7,35.9-90.7,123.1v40.4h181.5v-40.4H1461.5z M1300.7,1298.3c-11.7,0-20.7,9-20.7,20.7v44.9
		c0,129.4,22.5,169.8,93.4,169.8c43.1,0,72.8-22.5,83.6-65.6c3.6-12.6,5.4-24.3,5.4-58.4c0.9-11.7,9.9-20.7,20.7-20.7h97.9
		c10.8,0,19.8,9,19.8,20.7c-1.8,88.9-7.2,120.4-30.5,156.3c-37.7,61.1-106,93.4-196.8,93.4c-84.5,0-148.2-27-186-77.3
		c-32.3-45.8-45.8-100.6-45.8-200.3v-220.1c0-117.7,13.5-167.1,59.3-212c40.4-38.6,97.9-59.3,168-59.3c76.4,0,135.7,24.3,174.3,68.3
		c43.1,47.6,56.6,101.5,56.6,217.4v101.5c0,11.7-9,20.7-20.7,20.7H1300.7z M2032.9,1298.3c0-15.3-17.1-25.2-31.4-17.1
		c-98.8,57.5-140.2,106-140.2,168.9c0,48.5,29.6,82.7,70.1,82.7c36.8,0.9,71.9-19.8,97.9-61.1c1.8-3.6,3.6-7.2,3.6-11.7V1298.3z
		 M2040.1,1628.9l-4.5-25.2c-2.7-16.2-22.5-24.3-34.1-12.6c-49.4,47.6-85.4,63.8-135.7,63.8c-93.4,0-150-74.6-150-195.9
		c0-95.2,35.9-153.6,127.6-208.4c32.3-19.8,69.2-37.7,177-83.6c7.2-3.6,12.6-10.8,12.6-18.9V1122c0-75.5-20.7-105.1-72.8-105.1
		c-48.5,0-71.9,26.1-80,88c-1.8,9.9-9.9,17.1-19.8,17.1h-105.1c-12.6,0-22.5-9.9-20.7-22.5c18.9-133.9,103.3-204.8,244.4-204.8
		c68.3,0,117.7,18,151.8,56.6c31.4,38.6,40.4,72.8,40.4,163.5v328.8c0,94.3,1.8,133,10.8,176.1c2.7,12.6-7.2,25.2-19.8,25.2h-102.4
		C2050.9,1645,2041.9,1638.8,2040.1,1628.9 M2452.4,949.7c0,17.1,21.6,27,34.1,14.4c50.3-48.5,97-69.2,150-69.2
		s88.9,25.2,106.9,73.7c5.4,13.5,23.4,16.2,33.2,6.3c55.7-55.7,106-80,163.5-80c83.6,0,122.2,54.8,122.2,172.5v557
		c0,11.7-9.9,20.7-20.7,20.7h-97.9c-10.8,0-19.8-9-19.8-20.7v-521.1c0-63.8-13.5-86.2-52.1-86.2c-37.7,0-75.5,24.3-110.5,68.3
		c-2.7,3.6-4.5,9-4.5,13.5v525.6c0,11.7-9,20.7-20.7,20.7h-97c-11.7,0-20.7-9-20.7-20.7v-521.1c0-63.8-13.5-86.2-52.1-86.2
		c-36.8,0-75.5,24.3-109.6,68.3c-3.6,3.6-4.5,9-4.5,13.5v525.6c0,11.7-9,20.7-20.7,20.7h-97.9c-10.8,0-19.8-9-19.8-20.7v-699
		c0-10.8,9-19.8,19.8-19.8h97.9c11.7,0,20.7,9,20.7,19.8v24.1L2452.4,949.7L2452.4,949.7z M3515.3,1115.9c-9.9,4.5-21.6,0-26.1-9.9
		c-27.9-63.8-58.4-88.9-106.9-88.9c-43.1,0-73.7,27-73.7,65.6c0,40.4,21.6,61.1,125.8,117.7c82.7,45.8,120.4,69.2,150,100.6
		c32.3,34.1,52.1,85.4,52.1,140.2c0,131.2-90.7,218.3-228.2,218.3c-120.4,0-197.7-59.3-245.3-188.7c-4.5-10.8,1.8-22.5,12.6-26.1
		l89.8-31.4c10.8-3.6,22.5,1.8,26.1,11.7c28.7,77.3,62.9,108.7,116.8,108.7c46.7,0,79.1-31.4,79.1-74.6
		c0-42.2-23.4-68.3-104.2-111.4c-59.6-27.7-114.2-65.1-161.7-110.5c-34.1-35.9-53.9-86.2-53.9-140.2c0-120.4,90.7-206.6,215.6-206.6
		c111.4,0,186,51.2,232.7,159.9c3.6,9.9-0.9,22.5-11.7,27L3515.3,1115.9z M3866.6,1485.1c0,7.2,3.6,13.5,9,17.1
		c33.2,22.5,59.3,31.4,88,31.4c27.9,0,53.9-15.3,63.8-39.5c12.6-25.2,13.5-44,13.5-121.3v-195c0-77.3-0.9-97-13.5-122.2
		c-11.7-24.4-36.7-39.5-63.8-38.6c-28.7,0-55.7,9.9-87.1,30.5c-6.3,4.5-9.9,10.8-9.9,17.1V1485.1z M3866.6,925.4v8.1
		c0,17.1,20.7,26.1,34.1,15.3c45.8-36.8,86.2-53.9,130.3-53.9c53,0,95.2,27,118.6,76.4c22.5,50.3,29.6,102.4,29.6,215.6v177
		c0,114.1-7.2,165.3-29.6,215.6c-23.4,48.5-65.6,75.5-118.6,75.5c-44,0-84.5-16.2-130.3-53.9c-13.5-10.8-34.1-1.8-34.1,16.2v260.5
		c0,10.8-9,19.8-19.8,19.8h-97.9c-10.8,0-20.7-9-20.7-19.8V925.4c0-10.8,9.9-19.8,20.7-19.8h97.9
		C3857.6,905.6,3866.6,914.6,3866.6,925.4 M4619.4,1135.6c0-87.1-27-123.1-90.7-123.1s-90.7,35.9-90.7,123.1v40.4h181.5
		L4619.4,1135.6L4619.4,1135.6z M4458.6,1298.3c-11.7,0-20.7,9-20.7,20.7v44.9c0,129.4,22.5,169.8,94.3,169.8
		c43.1,0,72.8-22.5,82.7-65.6c4.5-12.6,5.4-24.3,6.3-58.4c0-11.7,9-20.7,19.8-20.7h97.9c10.8,0,20.7,9,19.8,20.7
		c-1.8,88.9-7.2,120.4-30.5,156.3c-36.8,61.1-105.1,93.4-195.9,93.4c-85.4,0-149.1-27-186-77.3c-33.2-45.8-46.7-100.6-46.7-200.3
		v-220.1c0-117.7,13.5-167.1,59.3-212c40.4-38.6,98.8-59.3,168.9-59.3c75.5,0,134.8,24.3,173.4,68.3
		c43.1,47.6,56.6,101.5,56.6,217.4v101.5c0,11.7-9,20.7-19.8,20.7H4458.6z M5190.8,1298.3c0-15.3-17.1-25.2-30.5-17.1
		c-99.7,57.5-140.2,106-140.2,168.9c0,48.5,29.6,82.7,69.2,82.7c37.7,0.9,71.9-19.8,97.9-61.1c2.7-3.6,3.6-7.2,3.6-11.7V1298.3z
		 M5198,1628.9l-4.5-25.2c-1.8-16.2-22.5-24.3-34.1-12.6c-49.4,47.6-85.4,63.8-134.8,63.8c-94.3,0-150.9-74.6-150.9-195.9
		c0-95.2,35.9-153.6,128.5-208.4c31.4-19.8,68.3-37.7,176.1-83.6c7.2-3.6,12.6-10.8,12.6-18.9V1122c0-75.5-20.7-105.1-72.8-105.1
		c-47.6,0-71.9,26.1-80,88c-1.8,9.9-9.9,17.1-19.8,17.1h-105.1c-12.6,0-22.5-9.9-20.7-22.5c18.9-133.9,103.3-204.8,244.4-204.8
		c69.2,0,117.7,18,151.8,56.6c31.4,38.6,40.4,72.8,40.4,163.5v328.8c0,94.3,1.8,133,10.8,176.1c2.7,12.6-7.2,25.2-19.8,25.2h-102.4
		C5208.8,1645,5200.7,1638.8,5198,1628.9 M5649,1133.8l122.2-218.3c3.6-6.3,10.8-9.9,18-9.9h108.7c16.2,0,26.1,17.1,17.1,30.5
		l-125.8,202.1c-2.7,5.4-3.6,11.7-1.8,17.1l151.8,462.7c4.5,13.5-5.4,27-18.9,27H5809c-9,0-17.1-6.3-19.8-14.4l-87.1-288.4
		c-4.5-16.2-27-19.8-36.8-4.5l-51.2,81.8c-2.7,3.6-3.6,7.2-3.6,10.8v194.1c0,11.7-9,20.7-20.7,20.7h-97c-11.7,0-20.7-9-20.7-20.7
		V673c0-11.7,9-20.7,20.7-20.7h97c11.7,0,20.7,9,20.7,20.7v451C5610.4,1144.6,5638.3,1151.8,5649,1133.8"/>
</g>
</svg>
