<svg version="1.1" id="f698cf57-4f6b-4529-a39c-70592e247574" xmlns="http://www.w3.org/2000/svg" x="0" y="0" viewBox="0 0 840 726.8" xml:space="preserve"><style>.st0{opacity:.8}.st7{fill:#fff}.st8{opacity:.2}.st12,.st13,.st8{enable-background:new}.st12{opacity:5.000000e-02}.st13{fill:#25dd85}.st13,.st14{opacity:.5}.st15{fill:#25dd85}</style><g class="st0"><linearGradient id="SVGID_1_" gradientUnits="userSpaceOnUse" x1="432" y1="480.2" x2="432" y2="707.1" gradientTransform="matrix(1 0 0 -1 0 726)"><stop offset="0" stop-color="gray" stop-opacity=".3"/><stop offset=".5" stop-color="gray" stop-opacity=".1"/><stop offset="1" stop-color="gray" stop-opacity=".1"/></linearGradient><ellipse cx="432" cy="132.3" rx="146.5" ry="113.5" fill="url(#SVGID_1_)"/></g><ellipse cx="432" cy="132.3" rx="143.2" ry="110.9" fill="#2580c3"/><path d="M311.9 144.6c0-61.3 64.1-110.9 143.2-110.9a177 177 0 0171.4 14.7 168.8 168.8 0 00-94.1-27.3c-79.1 0-143.2 49.7-143.2 110.9 0 41.1 28.9 77 71.9 96.2-30.2-20.3-49.2-50.2-49.2-83.6z" opacity=".1" fill="#fff"/><path d="M394.4 242a43.5 43.5 0 0175.2 0l121.2 209.9L712 661.8a43.4 43.4 0 01-37.6 65.1H189.7a43.4 43.4 0 01-37.6-65.1l121.2-209.9L394.4 242z" opacity=".2" fill="#2580c3"/><g opacity=".3"><linearGradient id="SVGID_2_" gradientUnits="userSpaceOnUse" x1="387.9" y1="-1295.8" x2="387.9" y2="-1110.4" gradientTransform="matrix(.95 .32 .32 -.95 430.2 -723.6)"><stop offset="0" stop-color="gray" stop-opacity=".3"/><stop offset=".5" stop-color="gray" stop-opacity=".1"/><stop offset="1" stop-color="gray" stop-opacity=".1"/></linearGradient><path d="M469.7 566.2l12.3-36.6a62.7 62.7 0 00-23.2-70.9l.1-.1a61.8 61.8 0 00-15.8-8l-.2-.1-.2-.1a64.8 64.8 0 00-33.5-1.7l-2.9.7-2.9.9a38.3 38.3 0 00-8.3 3.5 61.3 61.3 0 00-7.8 4.6l-2.4 1.8a61.2 61.2 0 00-21.2 29.6l-19.4 57.6a61 61 0 00-2.7 28.1l.7 4.3c.2 1.4.7 2.8 1 4.2.3.9.5 1.9.9 2.8l1.5 4.1 1.2 2.7c.8 1.8 1.7 3.5 2.7 5.1s2 3.3 3.2 4.9l2.7 3.5a63.1 63.1 0 0024.9 18.2l.3.1 1.4-2.2c3-4.1 8.2-7 13.2-5.9l1.1.3c2.5.9 5 2.5 7.4 3.3 1.8.8 3.8.8 5.6-.1 4.9-2.6 3.1-10.8 7.2-14.3l.6-.5-.2-.2c3.2-2 7.7-.7 11.4.6 4 1.4 9.2 2.4 12-.9 1.9-2.2 1.7-5.7 3.5-8 2.1-2.7 6-3 9.4-2.5h.2c6.5 2.7 13.6-1.8 13.1-8.8a55.3 55.3 0 013.1-20z" fill="url(#SVGID_2_)"/></g><path class="st7" d="M383.2 620.2c2.9-4 7.9-6.8 12.7-5.7s9.3 5.7 13.6 3.4c5.8-3.1 1.7-14.6 11.2-15.4 2-.1 4 .2 5.8 1 4 1.6 10.3 3.5 13.3-.2 1.8-2.2 1.7-5.5 3.4-7.7 2-2.6 5.8-2.9 9.1-2.4h.2c6.3 2.6 13.1-1.7 12.6-8.5-.6-9 2.2-17.5 2.8-19.3l11.9-35.3a60.4 60.4 0 00-37.8-76.3 60.4 60.4 0 00-76.3 37.9L347 547.2a60.5 60.5 0 0034.8 75.2l1.4-2.2z"/><circle class="st8" cx="405.4" cy="486.1" r="6.5"/><circle class="st8" cx="442.4" cy="498.5" r="6.5"/><ellipse transform="rotate(-71.4 415.6 517)" cx="415.6" cy="517" rx="9.8" ry="6.5" fill="#e0e0e0"/><circle class="st7" cx="552.5" cy="487.5" r="9.8"/><circle class="st7" cx="583.5" cy="472.2" r="4.9"/><path d="M569.5 99.4a86.2 86.2 0 012.8 22c0 61.3-64.1 110.9-143.2 110.9-64.7 0-119.4-33.3-137.1-78.9 13.1 50.8 71 89 140.4 89 79.1 0 143.2-49.7 143.2-110.9a88 88 0 00-6.1-32.1z" opacity=".1"/><g class="st0"><linearGradient id="SVGID_3_" gradientUnits="userSpaceOnUse" x1="432" y1="467.9" x2="432" y2="622.7" gradientTransform="matrix(1 0 0 -1 0 726)"><stop offset="0" stop-color="gray" stop-opacity=".3"/><stop offset=".5" stop-color="gray" stop-opacity=".1"/><stop offset="1" stop-color="gray" stop-opacity=".1"/></linearGradient><ellipse cx="432" cy="180.7" rx="296.2" ry="77.4" fill="url(#SVGID_3_)"/></g><path class="st7" d="M432 105.8c-158.2 0-286.4 33.5-286.4 74.9h572.8c0-41.4-128.2-74.9-286.4-74.9z"/><path class="st7" d="M432 255.5c158.2 0 286.4-33.5 286.4-74.9H145.6c0 41.4 128.2 74.9 286.4 74.9z"/><path class="st12" d="M432 255.5c158.2 0 286.4-33.5 286.4-74.9H145.6c0 41.4 128.2 74.9 286.4 74.9z"/><path class="st12" d="M312.5 161.1h239c9.5 0 17.2 7.7 17.2 17.2v4.6c0 9.5-7.7 17.2-17.2 17.2h-239c-9.5 0-17.2-7.7-17.2-17.2v-4.6c0-9.4 7.7-17.2 17.2-17.2z"/><path class="st13" d="M133.9 57.8a3.6 3.6 0 01-2-4.4l.1-.4c.1-1-.7-1.9-1.7-2a2 2 0 00-1.6.7l-.2.4a3.7 3.7 0 01-4.4 2.1l-.4-.1c-1-.1-1.9.7-2 1.7 0 .6.2 1.2.7 1.6l.4.2c1.7.7 2.6 2.7 2 4.4l-.1.4c-.1 1 .7 1.9 1.7 2a2 2 0 001.6-.7l.2-.4c.8-1.7 2.7-2.6 4.4-2l.4.1c1 .1 1.9-.7 2-1.7a2 2 0 00-.7-1.6l-.4-.3zM642.9 363.8a3.7 3.7 0 01-2-4.4l.1-.4c.1-1-.7-1.9-1.7-2a2 2 0 00-1.6.7l-.2.4a3.6 3.6 0 01-4.4 2l-.4-.1c-1-.1-1.9.7-2 1.7 0 .6.2 1.2.7 1.6l.4.2c1.7.8 2.5 2.7 2 4.4l-.1.4c-.1 1 .7 1.9 1.7 2a2 2 0 001.6-.7l.2-.4c.8-1.7 2.7-2.6 4.4-2l.4.1c1 .1 1.9-.7 2-1.7a2 2 0 00-.7-1.6l-.4-.2zM80.9 505.8a3.6 3.6 0 01-2-4.4l.1-.4c.1-1-.7-1.9-1.7-2a2 2 0 00-1.6.7l-.2.4a3.6 3.6 0 01-4.4 2l-.4-.1c-1-.1-1.9.7-2 1.7 0 .6.2 1.2.7 1.6l.4.2c1.7.7 2.6 2.7 2.1 4.4l-.1.4c-.1 1 .7 1.9 1.7 2a2 2 0 001.6-.7l.2-.4c.8-1.7 2.7-2.6 4.4-2l.4.1c1 .1 1.9-.7 2-1.7a2 2 0 00-.7-1.6c-.3 0-.4-.1-.5-.2zM25.9 174.8a3.7 3.7 0 01-2-4.4l.1-.4c.1-1-.7-1.9-1.7-2a2 2 0 00-1.6.7l-.2.4a3.6 3.6 0 01-4.4 2l-.4-.1c-1-.1-1.9.7-2 1.7 0 .6.2 1.2.7 1.6l.4.2c1.7.7 2.6 2.7 2.1 4.4l-.1.4c-.1 1 .7 1.9 1.7 2a2 2 0 001.6-.7l.2-.4c.8-1.7 2.7-2.6 4.4-2l.4.1c1 .1 1.9-.7 2-1.7a2 2 0 00-.7-1.6.8.8 0 01-.5-.2zM632.9 6.8a3.7 3.7 0 01-2-4.4l.1-.4c.1-1-.7-1.9-1.7-2a2 2 0 00-1.6.7l-.2.4c-.8 1.7-2.7 2.6-4.4 2l-.4-.1a1.8 1.8 0 00-1.3 3.4l.4.2c1.7.8 2.5 2.7 2 4.4l-.1.4a1.8 1.8 0 003.3 1.2l.2-.4c.8-1.7 2.7-2.6 4.4-2l.4.1c1 .1 1.9-.7 2-1.7a2 2 0 00-.7-1.6.8.8 0 01-.4-.2z"/><g class="st14"><path class="st15" d="M110 257.9h3v17h-3z"/><path class="st15" d="M103 264.9h17v3h-17z"/></g><g class="st14"><path class="st15" d="M830 177.9h3v17h-3z"/><path class="st15" d="M823 184.8h17v3h-17z"/></g><g class="st14"><path class="st15" d="M730 456.9h3v17h-3z"/><path class="st15" d="M723 463.9h17v3h-17z"/></g><circle class="st13" cx="723" cy="81.8" r="6"/><circle class="st13" cx="6" cy="12.9" r="6"/><circle class="st13" cx="186" cy="357.9" r="6"/><ellipse class="st12" cx="234" cy="154.4" rx="34" ry="7"/><ellipse class="st12" cx="234" cy="207.4" rx="34" ry="7"/><ellipse class="st12" cx="621" cy="154.4" rx="34" ry="7"/><ellipse class="st12" cx="621" cy="207.4" rx="34" ry="7"/><ellipse class="st12" cx="432" cy="124.4" rx="34" ry="7"/><ellipse class="st12" cx="457" cy="51.4" rx="34" ry="7"/><ellipse class="st12" cx="392" cy="81.4" rx="34" ry="7"/><ellipse class="st12" cx="517" cy="94.4" rx="34" ry="7"/><ellipse class="st12" cx="432" cy="228.4" rx="34" ry="7"/></svg>